<svg aria-hidden="true" style="width:0;height:0;position:absolute;overflow:hidden" xmlns="http://www.w3.org/2000/svg"><defs><symbol id="icon-up" viewBox="0 0 20 32"><path d="M10.186 15.199 3.825 21.56a2.243 2.243 0 1 1-3.172-3.172l8.073-8.065.087-.071.087-.063.095-.063.095-.055.11-.055.087-.039.205-.079.095-.032.055-.016.103-.024.11-.016.103-.016.11-.008h.221l.11.008.103.016.11.016.103.024.118.032.095.032.189.079.118.055.079.047.189.126.174.142.079.071 7.947 7.955a2.243 2.243 0 1 1-3.172 3.172L10.17 15.2z"/><path d="m10.186 24.984-6.361 6.361a2.243 2.243 0 1 1-3.172-3.172l8.073-8.065.087-.071.087-.063.095-.063.095-.055.11-.055.087-.039.205-.079.095-.032.055-.016.103-.024.11-.016.103-.016.11-.008h.221l.11.008.103.016.11.016.103.024.118.032.095.032.189.079.118.055.079.047.189.126.174.142.079.071 7.947 7.955a2.243 2.243 0 1 1-3.172 3.172l-6.361-6.361z"/></symbol></defs></svg>